<svg version="1.1" id="Layer_1" xmlns:x="ns_extend;" xmlns:i="ns_ai;" xmlns:graph="ns_graphs;" xmlns="http://www.w3.org/2000/svg" xmlns:xlink="http://www.w3.org/1999/xlink" x="0px" y="0px" viewBox="0 0 332.4 56" style="enable-background:new 0 0 332.4 56;" xml:space="preserve">
 <style type="text/css">
  .st0{fill-rule:evenodd;clip-rule:evenodd;}
	.st1{fill-rule:evenodd;clip-rule:evenodd;fill:#006CFF;}
 </style>
 <metadata>
  <sfw xmlns="ns_sfw;">
   <slices>
   </slices>
   <sliceSourceBounds bottomLeftOrigin="true" height="56" width="332.4" x="-84.6" y="-207.8">
   </sliceSourceBounds>
  </sfw>
 </metadata>
 <g>
  <path class="st0" d="M139.2,46.9l1.1-1.4c0.7-0.4,0.7-1,0.7-1.8s0-1.4-1-2.1c-0.4-0.7-1.1-1-2.1-1.4c-3.4-0.8-6.8-1.7-10.2-2.8
		l-3.8-2.5c-1.4-0.7-2.1-1.8-2.8-2.8l-1.1-4.2c0-1.8,0.3-3.1,1.1-4.2c0.7-1.4,1.8-2.8,3.2-3.5c1-1.1,2.8-2.1,4.2-2.5
		c3.3-1.1,6.9-1.1,10.2,0c1.4,0,2.8,0.7,4.2,1.8l2.8,2.8c1,1.1,1.4,2.4,1.8,3.5l-7.4,2.1c0-1.1-1.1-2.1-2.1-2.8
		c-1.2-0.9-2.7-1.4-4.2-1.4c-1.4-0.2-2.9,0.1-4.2,0.7l-1.4,1.4l-0.7,1.8l0.7,1.7l1.8,1.4l2.1,0.7l2.1,0.7l7,2.1l4.6,2.5
		c1.1,1,1.8,2.1,2.1,3.5c0.7,0.7,0.7,2.1,0.7,3.5c0,1.8,0,3.5-1.1,4.5c-0.7,1.4-1.8,2.8-3.2,3.9c-1.4,1.1-3.2,2.1-4.9,2.5
		c-1.8,0.7-3.8,1-5.9,1c-3.5,0-6.3-0.7-9.1-2.4c-2.5-1.8-4.2-3.5-5.2-6.3l7-2.8c0.7,1.8,1.8,2.8,3.2,3.5c1,0.7,2.8,1,4.5,1
		c2.1,0,3.5-0.7,5.2-1.8H139.2z M174.2,54.6l-6.7,1.4c-2.1,0-3.8,0-5.6-1c-1.8-0.7-3.2-2.1-4.2-3.9c-1.1-1.8-1.4-4.5-1.4-8V25.5
		h-6.7v-8h1.8c2.1,0,4.2-0.4,5.2-2.4c0.7-0.7,0.7-1.8,0.7-4.2V8.1h7v9.4h7.7v8.4H164v21.4l1.8,1.8l2.8,0.4h4.2
		C172.8,49.4,174.2,54.6,174.2,54.6z M198.7,24.5l-1-0.7h-1.8l-1.1-0.4c-2.9-0.1-5.8,0.9-8.1,2.8l-2.1,2.8c-0.7,1.1-0.7,2.4-0.7,3.5
		V56h-8.1V17.5h6.3l1.4,4.6c1.1-1.8,2.5-2.8,4.2-3.5c2-1.1,4.3-1.7,6.7-1.8l5.9,0.7l-2.1,7L198.7,24.5z M218.6,55.6
		c-7.9,0-15-4.7-18.2-11.9c-1-2.4-1.8-4.9-1.8-7.7c0-7.7,4.5-14.7,11.6-17.9c4.6-1.8,9.7-1.8,14.3,0c2.1,0.7,4.2,2.1,5.6,3.8
		c1.8,1.8,3.2,4.2,3.9,7c1.1,3.1,1.4,6.3,1.4,10.5h-28.3c0,1.4,0.7,2.4,1.8,3.5c1.5,2.4,3.7,4.2,6.3,5.2l4.5,0.7
		c3.6,0,7.1-1.4,9.8-3.9l4.9,4.6c-2,1.8-4.4,3.3-7,4.2C224.9,54.9,221.8,55.6,218.6,55.6z M217.2,23.4c-1.1,0-2.5,0-3.5,0.7
		c-2.2,1-4.1,2.7-5.2,4.9c-0.7,1.1-1.4,2.4-1.4,3.5H227c0-1.1,0-2.1-0.7-3.5c-1.6-3.7-5.4-5.9-9.4-5.6L217.2,23.4z M276.7,17.5v38.1
		h-6.3l-1.4-5.2c-1,1.8-2.8,3.2-4.9,3.9c-2.1,1-4.2,1.4-6.3,1.4c-5.1,0.1-10.1-1.9-13.6-5.6c-7.6-7.8-7.6-20.2,0-28
		c3.6-3.6,8.5-5.6,13.6-5.6c2.1,0,4.2,0.7,5.9,1.4c2.1,0.7,3.9,2.1,5.2,3.5l1.4-3.9h6.6L276.7,17.5z M257.8,49l4.2-1
		c1.4-0.7,2.8-1.8,3.5-2.8c2.3-2.5,3.5-5.7,3.5-9.1c0-3.4-1.3-6.6-3.5-9.1c-0.7-1-2.1-2.1-3.5-2.8c-2.8-1.4-6-1.4-8.7,0l-3.5,2.8
		c-2.3,2.5-3.5,5.7-3.5,9.1c0,3.4,1.3,6.6,3.5,9.1l3.5,2.8C254.7,48.6,256.1,49,257.8,49z M290.4,55.6h-7.7V17.1h5.9l1.8,3.5
		c0.7-1.1,2.1-2.1,3.5-2.8c1.1-0.7,2.8-1.4,4.6-1.4c3.1,0,6,1.2,8.4,3.1l2.4,2.8c0.7-1.4,2.1-2.8,3.9-4.2c1.8-1.2,3.8-1.8,5.9-1.8
		l4.6,0.7c3.5,1.1,6.3,3.7,7.7,7c0.7,2.1,1.1,4.9,1.1,8.1v23.4h-7V32.2c0-3.5-1.1-5.6-2.4-7c-1.1-1.1-3.2-1.8-5.2-1.8
		c-1.8,0-3.5,0.7-4.6,2.1c-1.1,1.4-1.8,3.5-1.8,6.7v23.4H304V32.2c0-3.5-0.7-5.6-2.1-7c-1.4-1.1-3.2-1.8-5.2-1.8
		c-1.8,0-3.2,0.7-4.2,1.8c-1.4,1.4-2.1,3.1-2.1,5.6v24.5L290.4,55.6z">
  </path>
  <path class="st1" d="M74.4,17.9l36.4-2.4c2.4,0,4.2,2.4,2.8,4.2l-25.5,35c-0.7,0.3-1.4,1-2.5,1H28.2c-0.9-0.1-1.7-0.6-2.1-1.4
		L0.6,19.6c-1.4-1.8,0-4.6,2.4-4.2l36.4,2.4L54.8,1.1c1-1.4,3.5-1.4,4.2,0l15.4,16.5V17.9z M82.1,50l-23.8-8.8V50H82.1z M55.5,50
		v-8.8L31.7,50h24.2H55.5z M52.7,39.5l-24.2,8.8L11.1,23.8l42,15.4L52.7,39.5z M61.1,39.5l24.5,8.8l17.5-24.5l-42,15.4V39.5z
		 M55.5,37.4v-29L35.9,30.1l19.6,7V37.4z M58.3,37.4v-29l19.9,21.7l-20,7L58.3,37.4z M30,28l4.5-4.9l-22.4-1.4L30,28z M83.9,28
		l-4.5-4.9l22-1.4L83.9,28z">
  </path>
 </g>
</svg>