<?xml version="1.0" standalone="no"?>
<!DOCTYPE svg PUBLIC "-//W3C//DTD SVG 20010904//EN"
 "http://www.w3.org/TR/2001/REC-SVG-20010904/DTD/svg10.dtd">
<svg version="1.0" xmlns="http://www.w3.org/2000/svg"
 width="500.000000pt" height="500.000000pt" viewBox="0 0 500.000000 500.000000"
 preserveAspectRatio="xMidYMid meet">
<metadata>
Created by potrace 1.14, written by Peter Selinger 2001-2017
</metadata>
<g transform="translate(0.000000,500.000000) scale(0.100000,-0.100000)"
fill="#000000" stroke="none">
<path d="M2488 4995 c-3 -3 -63 -8 -134 -10 -71 -3 -138 -7 -149 -9 -11 -3
-37 -5 -58 -5 -21 -1 -36 -4 -34 -8 3 -5 -11 -8 -31 -9 -40 -1 -85 -9 -147
-26 -22 -5 -47 -12 -55 -13 -8 -2 -17 -4 -20 -5 -3 -1 -9 -3 -15 -4 -50 -11
-76 -20 -81 -27 -2 -4 -11 -6 -19 -2 -8 3 -15 0 -15 -6 0 -6 -3 -10 -7 -9 -13
3 -97 -23 -110 -34 -7 -6 -13 -8 -13 -4 0 4 -11 -1 -25 -10 -14 -9 -25 -13
-25 -9 0 4 -7 1 -16 -6 -9 -8 -22 -14 -28 -14 -15 -1 -70 -28 -77 -38 -3 -5
-9 -8 -13 -8 -19 3 -27 0 -22 -7 2 -4 -5 -9 -17 -9 -12 -1 -23 -7 -25 -13 -2
-5 -7 -8 -12 -5 -5 3 -14 -1 -22 -8 -7 -7 -28 -19 -45 -26 -18 -7 -33 -18 -33
-23 0 -5 -4 -7 -9 -4 -5 3 -20 -5 -35 -19 -15 -13 -28 -23 -30 -22 -4 2 -105
-62 -122 -78 -6 -5 -22 -17 -34 -25 -13 -8 -30 -23 -39 -32 -8 -10 -20 -18
-26 -18 -6 0 -21 -10 -32 -22 -25 -27 -128 -117 -154 -136 -11 -7 -19 -20 -19
-28 0 -8 -4 -14 -8 -14 -11 0 -39 -27 -97 -95 -27 -32 -60 -69 -72 -82 -12
-12 -19 -23 -16 -23 4 0 0 -6 -8 -12 -26 -22 -159 -213 -159 -229 0 -5 -5 -9
-12 -9 -6 0 -9 -3 -5 -6 3 -3 -3 -15 -13 -27 -11 -11 -17 -24 -14 -29 3 -4 1
-8 -5 -8 -6 0 -13 -11 -17 -25 -3 -14 -10 -25 -15 -25 -5 0 -8 -3 -7 -7 1 -5
-14 -40 -34 -80 -20 -39 -33 -74 -30 -77 3 -3 1 -6 -5 -6 -10 0 -28 -46 -25
-62 1 -5 -2 -8 -8 -8 -5 0 -10 -8 -10 -18 0 -10 -3 -22 -7 -26 -5 -4 -8 -11
-8 -14 -1 -4 -9 -32 -20 -62 -11 -30 -19 -57 -20 -60 0 -3 -3 -9 -6 -15 -4 -5
-5 -18 -4 -28 2 -9 -1 -14 -7 -11 -5 3 -8 -2 -7 -12 2 -11 0 -25 -5 -32 -4 -7
-10 -23 -12 -35 -2 -12 -8 -42 -13 -67 -17 -75 -21 -94 -27 -125 -2 -16 -7
-43 -10 -60 -14 -71 -15 -101 -18 -317 -2 -126 -1 -228 3 -228 4 0 8 -7 8 -15
0 -8 -4 -15 -9 -15 -5 0 -7 -4 -3 -9 3 -5 8 -31 10 -58 9 -78 28 -193 51 -293
3 -14 7 -35 10 -47 2 -12 9 -34 14 -48 5 -14 7 -25 4 -25 -4 0 0 -7 7 -17 8
-9 13 -19 12 -22 -3 -8 27 -113 36 -126 4 -5 13 -28 20 -50 14 -45 34 -93 62
-147 10 -21 15 -38 11 -38 -4 0 -2 -4 3 -8 6 -4 26 -38 45 -77 19 -38 38 -71
42 -73 5 -2 8 -8 8 -13 0 -6 18 -37 40 -70 22 -33 40 -64 40 -69 0 -4 7 -10
15 -14 8 -3 15 -11 15 -18 0 -7 10 -24 23 -38 12 -14 34 -41 47 -60 13 -19 32
-44 42 -54 10 -11 18 -24 18 -28 0 -5 5 -6 10 -3 5 3 10 1 10 -4 0 -6 8 -20
17 -32 26 -30 203 -209 207 -209 3 0 20 -15 38 -33 19 -17 49 -43 68 -57 18
-14 49 -37 69 -52 20 -15 44 -34 54 -42 9 -9 20 -16 23 -16 9 0 98 -62 106
-74 4 -6 8 -8 8 -3 0 4 18 -4 40 -18 22 -14 44 -25 49 -25 5 0 11 -4 13 -8 2
-6 152 -85 168 -88 3 0 28 -11 55 -24 28 -13 58 -23 68 -23 9 0 17 -4 17 -8 0
-5 9 -9 20 -9 11 0 20 -4 20 -10 0 -5 10 -10 23 -10 13 0 27 -4 33 -8 5 -5 29
-14 54 -21 25 -8 52 -16 60 -19 8 -3 24 -7 35 -9 11 -2 45 -10 75 -17 30 -8
73 -17 95 -20 64 -10 84 -14 97 -22 7 -5 8 -3 3 7 -8 12 -6 12 8 0 9 -7 17
-11 17 -9 0 3 21 1 47 -3 48 -9 223 -22 303 -22 64 0 315 18 315 23 0 1 9 3
20 4 27 4 125 18 150 23 11 2 31 5 45 7 14 2 26 5 28 6 1 1 7 4 12 5 6 1 11 3
13 5 1 1 18 4 37 7 19 2 37 8 40 11 3 4 18 8 35 10 16 2 35 8 42 14 7 6 13 8
13 4 0 -4 14 0 30 9 17 9 30 13 30 10 0 -3 10 0 23 7 12 7 24 13 27 13 46 7
338 147 435 209 98 63 140 92 143 99 2 4 8 5 13 1 5 -3 9 2 9 11 0 9 4 14 10
10 5 -3 18 3 30 15 11 11 22 20 25 20 3 0 17 10 30 23 52 49 73 67 79 67 15 0
300 297 301 313 0 5 9 15 19 23 11 8 17 14 13 14 -8 0 19 35 45 58 9 9 15 19
12 24 -3 4 0 8 6 8 6 0 8 4 5 10 -3 5 -2 10 3 10 10 0 93 126 138 210 16 30
33 58 37 61 5 3 8 8 7 10 -3 7 24 63 37 77 7 7 10 19 7 27 -4 8 -1 15 5 15 6
0 11 9 11 20 0 11 4 20 10 20 5 0 9 3 9 8 -3 16 14 72 22 72 4 0 6 9 4 20 -2
11 0 20 5 20 5 0 12 15 15 32 4 18 12 38 17 45 5 7 7 17 4 22 -4 5 -2 12 4 16
5 3 10 15 10 25 0 10 5 31 11 47 7 15 13 37 14 49 2 11 8 38 14 60 9 36 18 76
27 129 2 11 6 32 9 47 13 68 13 78 2 78 -7 0 -6 4 3 9 10 6 15 25 15 55 0 25
2 46 5 46 3 0 5 11 5 25 0 14 -4 25 -9 25 -5 0 -4 6 1 13 7 10 10 259 3 292
-1 6 -2 12 0 15 5 14 4 80 -1 80 -4 0 -6 16 -5 36 1 20 -1 37 -4 39 -4 2 -5
18 -4 34 1 17 -1 31 -5 31 -4 0 -7 10 -7 23 -1 28 -12 92 -24 137 -5 19 -11
46 -14 60 -2 14 -9 38 -15 54 -7 16 -9 31 -6 34 2 3 1 10 -4 16 -6 7 -12 23
-15 36 -2 14 -12 42 -20 63 -9 20 -14 37 -11 37 3 0 -1 10 -10 23 -8 13 -12
27 -8 30 3 4 1 7 -5 7 -7 0 -12 9 -12 20 0 11 -9 35 -20 55 -11 19 -20 38 -21
43 -3 20 -63 142 -71 142 -4 0 -8 8 -8 18 0 11 -9 29 -20 42 -11 13 -20 29
-20 37 0 7 -5 13 -12 13 -6 0 -8 3 -5 6 4 4 -7 24 -23 44 -17 21 -30 41 -30
45 0 9 -51 77 -69 93 -8 6 -11 12 -7 12 4 0 -5 15 -20 34 -16 19 -42 51 -59
71 -16 20 -49 58 -72 83 -24 26 -43 51 -43 55 0 5 -4 5 -10 2 -5 -3 -10 -2
-10 3 0 15 -196 202 -215 206 -5 0 -26 18 -48 38 -23 20 -44 35 -49 32 -4 -3
-8 -1 -8 4 0 6 -17 21 -37 34 -20 12 -55 35 -77 50 -43 28 -77 48 -126 74 -16
8 -32 20 -35 25 -4 5 -11 7 -16 4 -5 -4 -9 -1 -9 4 0 6 -7 11 -16 11 -8 0 -22
7 -31 15 -8 8 -19 13 -24 10 -5 -4 -9 -2 -9 3 0 8 -14 15 -50 23 -3 0 -10 4
-15 9 -20 17 -275 112 -275 103 0 -3 -6 -1 -12 4 -14 11 -52 22 -123 37 -5 1
-15 5 -21 9 -7 4 -29 9 -50 11 -22 2 -46 6 -54 9 -14 6 -29 9 -115 22 -56 9
-130 16 -230 21 -55 2 -105 6 -112 9 -7 2 -15 -1 -19 -7 -5 -7 -9 -7 -13 1 -4
6 -10 9 -13 6z"/>
</g>
</svg>
